# xmcd CD database file
#
# Track frame offsets:
#	150
#	33724
#	63460
#	97692
#	128239
#	160617
#	188843
#	220078
#	243682
#	275683
#
# Disc length: 4078 seconds
#
# Revision: 0
# Processed by: cddbd v1.5.2PL0 Copyright (c) Steve Scherf et al.
# Submitted via: CDex 1.70beta2
#
DISCID=8c0fec0a
DTITLE=Jamie Fox - When I Get Home
DYEAR=2006
DGENRE=Jazz
TTITLE0=Five One and A Half
TTITLE1=Row After Row
TTITLE2=All In Time
TTITLE3=Moniker
TTITLE4=Ognat
TTITLE5=Leisure
TTITLE6=Mine and Yours
TTITLE7=Childhood
TTITLE8=New News
TTITLE9=When I Get Home
EXTD=YEAR: 2006
EXTT0=
EXTT1=
EXTT2=
EXTT3=
EXTT4=
EXTT5=
EXTT6=
EXTT7=
EXTT8=
EXTT9=
PLAYORDER=
